<svg width="176" height="94" viewBox="0 0 176 94" fill="none" xmlns="http://www.w3.org/2000/svg">
<g clip-path="url(#clip0_443_210)">
<rect x="13" y="64" width="150" height="5" fill="#9236A4"/>
<path d="M58.1875 54.8281C58.3281 55.0156 58.3984 55.1562 58.3984 55.25C58.3984 55.3906 58.3125 55.4844 58.1406 55.5312C57.9688 55.5625 57.75 55.5859 57.4844 55.6016C57.2188 55.6016 56.9297 55.6016 56.6172 55.6016C56.3047 55.6016 56.0078 55.6328 55.7266 55.6953C55.3672 55.7734 55.0469 55.875 54.7656 56C54.4844 56.125 54.2188 56.25 53.9688 56.375C53.7188 56.5156 53.4844 56.6328 53.2656 56.7266C53.0469 56.8203 52.8359 56.8672 52.6328 56.8672C52.4453 56.8672 52.2656 56.8203 52.0938 56.7266C51.9219 56.6328 51.7578 56.5859 51.6016 56.5859C51.3672 56.5859 51.1172 56.6094 50.8516 56.6562C50.6016 56.7031 50.3594 56.7578 50.125 56.8203C49.9062 56.8828 49.7031 56.9375 49.5156 56.9844C49.3281 57.0469 49.1875 57.0859 49.0938 57.1016C48.875 57.1016 48.6953 57.0547 48.5547 56.9609C48.4297 56.8672 48.3672 56.7344 48.3672 56.5625C48.3672 56.1875 48.5078 55.9219 48.7891 55.7656C49.0859 55.6094 49.4922 55.5312 50.0078 55.5312C50.0859 55.5312 50.1797 55.5391 50.2891 55.5547C50.3984 55.5703 50.5078 55.5781 50.6172 55.5781C50.8828 55.5781 51.1016 55.4531 51.2734 55.2031C51.4453 54.9375 51.5781 54.6016 51.6719 54.1953C51.7812 53.7734 51.8516 53.2969 51.8828 52.7656C51.9297 52.2188 51.9609 51.6719 51.9766 51.125C51.9922 50.5781 52 50.0469 52 49.5312C52.0156 49.0156 52.0312 48.5625 52.0469 48.1719C52.125 46.75 52.1875 45.2812 52.2344 43.7656C52.2812 42.25 52.3047 40.8281 52.3047 39.5C52.3047 38.3906 52.2812 37.4375 52.2344 36.6406C52.0156 36.7188 51.8203 36.8281 51.6484 36.9688C51.4766 37.1094 51.3203 37.2656 51.1797 37.4375C51.0391 37.6094 50.9062 37.7969 50.7812 38C50.6719 38.1875 50.5703 38.3672 50.4766 38.5391C50.4609 38.5547 50.4531 38.5781 50.4531 38.6094C50.4531 38.6406 50.4531 38.6797 50.4531 38.7266C50.4688 38.7734 50.4766 38.8125 50.4766 38.8438C50.4766 38.8594 50.4453 38.9219 50.3828 39.0312C50.3203 39.1406 50.2422 39.2656 50.1484 39.4062C50.0547 39.5312 49.9531 39.6641 49.8438 39.8047C49.75 39.9453 49.6719 40.0469 49.6094 40.1094C49.4062 40.3281 49.1328 40.7031 48.7891 41.2344C48.4609 41.75 48.0859 42.3672 47.6641 43.0859C47.2578 43.8047 46.8281 44.5938 46.375 45.4531C45.9375 46.3125 45.5 47.1875 45.0625 48.0781C44.6406 48.9688 44.2422 49.8438 43.8672 50.7031C43.5078 51.5625 43.2031 52.3516 42.9531 53.0703C42.8281 53.3984 42.7344 53.7266 42.6719 54.0547C42.6094 54.3828 42.5234 54.6875 42.4141 54.9688C42.3203 55.2344 42.1875 55.4531 42.0156 55.625C41.8594 55.7812 41.625 55.8594 41.3125 55.8594C41.1875 55.8594 41.0859 55.8359 41.0078 55.7891C40.9297 55.7266 40.875 55.6953 40.8438 55.6953C40.6562 55.7109 40.4922 55.75 40.3516 55.8125C40.2266 55.875 40.1094 55.9062 40 55.9062C39.8594 55.8594 39.7344 55.7969 39.625 55.7188C39.5312 55.6562 39.4453 55.5781 39.3672 55.4844C39.3047 55.375 39.2734 55.2578 39.2734 55.1328C39.2734 55.1016 39.2734 55.0703 39.2734 55.0391C39.2891 54.9922 39.2969 54.9531 39.2969 54.9219C39.2969 54.9062 39.2891 54.8906 39.2734 54.875C39.2734 54.8594 39.2734 54.8438 39.2734 54.8281C39.1172 54.5 38.9609 54.1641 38.8047 53.8203C38.6641 53.4609 38.5312 53.0391 38.4062 52.5547V52.2734C38.4062 52.1328 38.3516 51.8984 38.2422 51.5703C38.1484 51.2266 37.9688 50.7969 37.7031 50.2812C37.625 50.0156 37.5781 49.7422 37.5625 49.4609C37.5469 49.1797 37.4766 48.9297 37.3516 48.7109C37.3203 48.6641 37.2812 48.6328 37.2344 48.6172C37.1875 48.6016 37.1641 48.5312 37.1641 48.4062C37.1641 48.375 37.1641 48.3359 37.1641 48.2891C37.1797 48.2422 37.1875 48.2031 37.1875 48.1719C37.125 47.9375 37.0234 47.6406 36.8828 47.2812C36.7422 46.9062 36.6016 46.5469 36.4609 46.2031C36.3203 45.8438 36.1953 45.5391 36.0859 45.2891C35.9922 45.0391 35.9453 44.9062 35.9453 44.8906C35.9453 44.8125 35.9531 44.7422 35.9688 44.6797C35.9844 44.6016 35.9922 44.5312 35.9922 44.4688C35.9922 44.375 35.9297 44.2656 35.8047 44.1406C35.6953 44.0156 35.625 43.8984 35.5938 43.7891C35.4844 43.5234 35.3984 43.2344 35.3359 42.9219C35.2891 42.6094 35.2031 42.2656 35.0781 41.8906C35.0312 41.7344 34.9609 41.5391 34.8672 41.3047C34.7891 41.0547 34.7031 40.7891 34.6094 40.5078C34.5156 40.2266 34.4141 39.9297 34.3047 39.6172C34.2109 39.3047 34.1172 39.0078 34.0234 38.7266C33.9922 38.6484 33.9688 38.5469 33.9531 38.4219C33.9375 38.2812 33.9062 38.1484 33.8594 38.0234C33.8438 37.9922 33.8047 37.9297 33.7422 37.8359C33.6797 37.7266 33.6172 37.6172 33.5547 37.5078C33.4922 37.3828 33.4375 37.2734 33.3906 37.1797C33.3438 37.0859 33.3203 37.0234 33.3203 36.9922V36.9688C33.1641 37 33.0391 37.1875 32.9453 37.5312C32.8672 37.875 32.7969 38.2656 32.7344 38.7031C32.6875 39.1406 32.6406 39.5703 32.5938 39.9922C32.5625 40.3984 32.5156 40.6797 32.4531 40.8359C32.375 41.0391 32.3359 41.3047 32.3359 41.6328C32.3516 41.9453 32.3359 42.3125 32.2891 42.7344C32.2578 43.0156 32.1875 43.2734 32.0781 43.5078C31.9688 43.7422 31.9141 43.9922 31.9141 44.2578C31.9141 44.3828 31.9141 44.5078 31.9141 44.6328C31.9297 44.7422 31.9375 44.8594 31.9375 44.9844C31.9375 45.3438 31.8828 45.6875 31.7734 46.0156C31.6797 46.3438 31.6094 46.7734 31.5625 47.3047C31.5625 47.3359 31.5625 47.375 31.5625 47.4219C31.5781 47.4688 31.5859 47.5078 31.5859 47.5391C31.5859 47.6172 31.5625 47.6875 31.5156 47.75C31.4688 47.7969 31.4297 47.8203 31.3984 47.8203C31.3203 48.3047 31.2578 48.7734 31.2109 49.2266C31.1797 49.6797 31.125 50.1406 31.0469 50.6094C30.9688 51 30.875 51.3828 30.7656 51.7578C30.6719 52.1172 30.5938 52.5 30.5312 52.9062C30.4688 53.3125 30.4297 53.7188 30.4141 54.125C30.4141 54.5312 30.3906 54.9375 30.3438 55.3438C30.7344 55.3281 31.1328 55.2656 31.5391 55.1562C31.9609 55.0312 32.3672 54.9688 32.7578 54.9688C33.1953 54.9688 33.5625 55.0938 33.8594 55.3438C33.8125 55.5312 33.7656 55.6719 33.7188 55.7656C33.6719 55.8438 33.6094 55.9062 33.5312 55.9531C33.4531 55.9844 33.3516 56 33.2266 56C33.1172 56.0156 32.9766 56.0312 32.8047 56.0469C32.6797 56.0625 32.6016 56.0938 32.5703 56.1406C32.5547 56.1875 32.5156 56.2188 32.4531 56.2344C32.1875 56.2969 31.9141 56.3359 31.6328 56.3516C31.3672 56.3828 31.1016 56.4062 30.8359 56.4219C30.5703 56.4531 30.3047 56.4922 30.0391 56.5391C29.7891 56.5859 29.5469 56.6562 29.3125 56.75C29.2188 56.7969 29.0781 56.8359 28.8906 56.8672C28.7188 56.8984 28.5234 56.9219 28.3047 56.9375C28.0859 56.9688 27.8594 56.9922 27.625 57.0078C27.4062 57.0391 27.2109 57.0703 27.0391 57.1016C26.8203 57.1328 26.5469 57.1953 26.2188 57.2891C25.8906 57.3828 25.5859 57.4297 25.3047 57.4297C25.0859 57.4297 24.9062 57.3828 24.7656 57.2891C24.6406 57.1953 24.5781 57.0156 24.5781 56.75C24.5781 56.5 24.6641 56.3281 24.8359 56.2344C25.0078 56.1562 25.2109 56.1016 25.4453 56.0703C25.6953 56.0547 25.9453 56.0391 26.1953 56.0234C26.4609 56.0234 26.6797 55.9688 26.8516 55.8594C27.0391 55.75 27.1953 55.6172 27.3203 55.4609C27.4609 55.3047 27.5703 55.1484 27.6484 54.9922C27.7266 54.8359 27.7891 54.7031 27.8359 54.5938C27.8828 54.4688 27.9062 54.3906 27.9062 54.3594C27.9062 54.2812 27.8984 54.2109 27.8828 54.1484C27.8828 54.0859 27.8828 54.0156 27.8828 53.9375C27.8828 53.8594 27.8906 53.8047 27.9062 53.7734C28.0781 53.2734 28.2578 52.7969 28.4453 52.3438C28.6484 51.875 28.8125 51.3594 28.9375 50.7969C28.9531 50.7812 28.9609 50.75 28.9609 50.7031C28.9609 50.6562 28.9531 50.6094 28.9375 50.5625C28.9375 50.5156 28.9375 50.4766 28.9375 50.4453C28.9844 50.3047 29.0391 50.1328 29.1016 49.9297C29.1797 49.7109 29.2578 49.4844 29.3359 49.25C29.4297 49.0156 29.5156 48.7734 29.5938 48.5234C29.6875 48.2734 29.7656 48.0391 29.8281 47.8203V47.7266C29.8281 47.6641 29.8203 47.6094 29.8047 47.5625C29.8047 47.5156 29.8047 47.4688 29.8047 47.4219C29.8047 47.3594 29.8594 47.2656 29.9688 47.1406C30.0781 47 30.1484 46.8203 30.1797 46.6016C30.2578 46.2266 30.2891 45.8672 30.2734 45.5234C30.2734 45.1797 30.2969 44.8438 30.3438 44.5156C30.4062 44.1094 30.4844 43.7188 30.5781 43.3438C30.6719 42.9688 30.7656 42.6016 30.8594 42.2422C30.9531 41.8828 31.0312 41.5312 31.0938 41.1875C31.1719 40.8281 31.2188 40.4688 31.2344 40.1094C31.25 39.8281 31.2891 39.5391 31.3516 39.2422C31.4141 38.9453 31.4844 38.6484 31.5625 38.3516C31.6562 38.0391 31.7344 37.7266 31.7969 37.4141C31.875 37.1016 31.9219 36.7812 31.9375 36.4531C31.9531 36.1406 32.0078 35.8438 32.1016 35.5625C32.1953 35.2656 32.2578 34.9766 32.2891 34.6953C32.3359 34.3359 32.3594 33.9609 32.3594 33.5703C32.375 33.1641 32.4062 32.7812 32.4531 32.4219C32.4844 32.25 32.5469 32.0469 32.6406 31.8125C32.75 31.5625 32.8047 31.3594 32.8047 31.2031C32.8047 31.1406 32.7656 31.0625 32.6875 30.9688C32.625 30.875 32.5938 30.7656 32.5938 30.6406C32.5938 30.6094 32.6562 30.5391 32.7812 30.4297C32.9062 30.3047 33.0703 30.1641 33.2734 30.0078C33.4766 29.8359 33.7031 29.6562 33.9531 29.4688C34.2031 29.2812 34.4609 29.1016 34.7266 28.9297C34.7422 28.9141 34.7891 28.9062 34.8672 28.9062C34.9609 28.9062 35.0625 28.9062 35.1719 28.9062C35.3125 28.9062 35.4219 28.9141 35.5 28.9297C35.5781 28.9297 35.625 28.9609 35.6406 29.0234C35.6719 29.0703 35.6875 29.1484 35.6875 29.2578C35.6875 29.3672 35.6875 29.5156 35.6875 29.7031C35.6875 29.875 35.6797 30.0547 35.6641 30.2422C35.6641 30.4141 35.6641 30.5938 35.6641 30.7812C35.6641 31 35.6719 31.1797 35.6875 31.3203C35.7031 31.4453 35.7188 31.5703 35.7344 31.6953C35.7656 31.8047 35.7969 31.9141 35.8281 32.0234C35.875 32.1328 35.9219 32.2656 35.9688 32.4219C36.0156 32.5781 36.0547 32.7656 36.0859 32.9844C36.1172 33.1875 36.1875 33.4062 36.2969 33.6406C36.3281 33.7031 36.3906 33.8047 36.4844 33.9453C36.5781 34.0703 36.6328 34.1484 36.6484 34.1797C36.7578 34.5234 36.8125 34.875 36.8125 35.2344C36.8125 35.5781 36.875 35.9219 37 36.2656C37.0312 36.3281 37.0938 36.3984 37.1875 36.4766C37.2969 36.5547 37.3516 36.6172 37.3516 36.6641C37.3516 36.6953 37.3438 36.7344 37.3281 36.7812C37.3281 36.8281 37.3281 36.8672 37.3281 36.8984C37.3281 36.9453 37.3359 36.9688 37.3516 36.9688C37.4609 37.0625 37.5547 37.2188 37.6328 37.4375C37.7109 37.6562 37.7812 37.9062 37.8438 38.1875C37.9062 38.4531 37.9609 38.7344 38.0078 39.0312C38.0703 39.3125 38.1406 39.5625 38.2188 39.7812C38.2656 39.9219 38.3203 40.0625 38.3828 40.2031C38.4609 40.3281 38.5312 40.4766 38.5938 40.6484C38.625 40.7734 38.6484 40.9219 38.6641 41.0938C38.6797 41.25 38.7109 41.3906 38.7578 41.5156C38.8672 41.8281 39.0312 42.1953 39.25 42.6172C39.4844 43.0391 39.6719 43.4922 39.8125 43.9766V44.2578C39.8125 44.3672 39.8672 44.5312 39.9766 44.75C40.1016 44.9531 40.2188 45.1562 40.3281 45.3594C40.4375 45.6875 40.5234 46.0625 40.5859 46.4844C40.6484 46.8906 40.7344 47.2812 40.8438 47.6562C40.875 47.7031 40.9375 47.7656 41.0312 47.8438C41.1406 47.9062 41.2031 47.9531 41.2188 47.9844C41.2344 48.0781 41.2422 48.2031 41.2422 48.3594C41.2578 48.5156 41.2734 48.6719 41.2891 48.8281C41.3203 48.9844 41.3672 49.1172 41.4297 49.2266C41.5078 49.3359 41.625 49.3906 41.7812 49.3906C41.9219 49.3906 42.0703 49.2969 42.2266 49.1094C42.3984 48.9062 42.5625 48.6641 42.7188 48.3828C42.8906 48.1016 43.0547 47.8125 43.2109 47.5156C43.3828 47.2188 43.5312 46.9688 43.6562 46.7656C43.6719 46.7344 43.75 46.625 43.8906 46.4375C44.0312 46.2344 44.1875 46 44.3594 45.7344C44.3906 45.6562 44.4141 45.5703 44.4297 45.4766C44.4453 45.3672 44.4766 45.2734 44.5234 45.1953C44.5547 45.1641 44.6094 45.1406 44.6875 45.125C44.7812 45.0938 44.8438 45.0625 44.875 45.0312C44.9375 44.9531 44.9609 44.8672 44.9453 44.7734C44.9453 44.6641 44.9844 44.5781 45.0625 44.5156C45.0938 44.4688 45.1484 44.4375 45.2266 44.4219C45.3203 44.4062 45.3828 44.375 45.4141 44.3281C45.4766 44.25 45.5 44.1641 45.4844 44.0703C45.4688 43.9609 45.5 43.8672 45.5781 43.7891C45.6094 43.7578 45.6719 43.7344 45.7656 43.7188C45.8594 43.6875 45.9141 43.6562 45.9297 43.625C46.0547 43.4062 46.1406 43.1562 46.1875 42.875C46.2344 42.5781 46.3281 42.3047 46.4688 42.0547C46.4844 42.0234 46.5391 42 46.6328 41.9844C46.7266 41.9531 46.7812 41.9219 46.7969 41.8906C46.875 41.7344 46.9219 41.6172 46.9375 41.5391C46.9531 41.4609 47.0234 41.3359 47.1484 41.1641C47.2578 41.0078 47.3828 40.8672 47.5234 40.7422C47.6641 40.6016 47.7734 40.4531 47.8516 40.2969C47.9297 40.1875 47.9609 40.0781 47.9453 39.9688C47.9297 39.8438 47.9609 39.7188 48.0391 39.5938C48.1016 39.4688 48.2109 39.3281 48.3672 39.1719C48.5234 39 48.6406 38.7891 48.7188 38.5391C48.7812 38.2891 48.9531 38.0156 49.2344 37.7188C49.5156 37.4062 49.75 37.1016 49.9375 36.8047C50.125 36.5078 50.2812 36.2578 50.4062 36.0547C50.5312 35.8359 50.6406 35.6406 50.7344 35.4688C50.8438 35.2969 50.9531 35.125 51.0625 34.9531C51.1875 34.7656 51.3438 34.5625 51.5312 34.3438C51.625 34.2188 51.75 34.0859 51.9062 33.9453C52.0625 33.7891 52.2266 33.5703 52.3984 33.2891C52.4297 33.2266 52.4531 33.1406 52.4688 33.0312C52.4844 32.9219 52.5156 32.8359 52.5625 32.7734C52.6562 32.6641 52.7812 32.5781 52.9375 32.5156C53.0938 32.4531 53.2109 32.3594 53.2891 32.2344C53.4766 31.9531 53.625 31.6562 53.7344 31.3438C53.8438 31.0156 53.9766 30.7188 54.1328 30.4531C54.2891 30.1719 54.4844 29.9453 54.7188 29.7734C54.9531 29.6016 55.2969 29.5156 55.75 29.5156C56.125 29.5156 56.3828 29.625 56.5234 29.8438C56.6641 30.0469 56.7344 30.3047 56.7344 30.6172C56.7344 30.8828 56.7031 31.1719 56.6406 31.4844C56.5781 31.7969 56.5078 32.1094 56.4297 32.4219C56.3516 32.75 56.2891 33.125 56.2422 33.5469C56.2109 33.9688 56.1797 34.4219 56.1484 34.9062C56.1328 35.375 56.1172 35.8594 56.1016 36.3594C56.1016 36.8594 56.0938 37.3594 56.0781 37.8594C56.0469 38.7344 55.9453 39.6016 55.7734 40.4609C55.6172 41.3203 55.5391 42.1719 55.5391 43.0156C55.5391 43.2188 55.5391 43.4219 55.5391 43.625C55.5547 43.8281 55.5625 44.0312 55.5625 44.2344C55.5625 44.5469 55.5312 44.8125 55.4688 45.0312C55.4062 45.2344 55.375 45.4688 55.375 45.7344C55.375 45.9531 55.4062 46.1953 55.4688 46.4609C55.5312 46.7266 55.5625 46.9531 55.5625 47.1406C55.5 47.3281 55.4375 47.5781 55.375 47.8906C55.3125 48.1875 55.25 48.5156 55.1875 48.875C55.1406 49.2344 55.1016 49.6172 55.0703 50.0234C55.0391 50.4141 55.0234 50.8047 55.0234 51.1953C55.0234 51.3516 55.0469 51.5312 55.0938 51.7344C55.1562 51.9219 55.1875 52.0781 55.1875 52.2031C55.1875 52.4531 55.1562 52.6953 55.0938 52.9297C55.0312 53.1484 55 53.3672 55 53.5859C55 53.7734 55.0312 53.9453 55.0938 54.1016C55.1562 54.2578 55.2266 54.3984 55.3047 54.5234C55.3984 54.6328 55.4922 54.7188 55.5859 54.7812C55.6797 54.8438 55.7578 54.875 55.8203 54.875C55.9609 54.875 56.125 54.8594 56.3125 54.8281C56.5 54.7812 56.6875 54.7344 56.875 54.6875C57.0625 54.625 57.2266 54.5781 57.3672 54.5469C57.5078 54.5 57.6016 54.4766 57.6484 54.4766C57.7422 54.4922 57.8359 54.5391 57.9297 54.6172C58.0391 54.6797 58.125 54.75 58.1875 54.8281ZM79.1406 50.1641C79.3125 50.3359 79.3984 50.4922 79.3984 50.6328C79.3984 50.7266 79.3594 50.8203 79.2812 50.9141C79.2188 50.9922 79.1406 51.0703 79.0469 51.1484C78.9531 51.2109 78.8594 51.2812 78.7656 51.3594C78.6875 51.4219 78.6328 51.4922 78.6016 51.5703C78.4609 51.9141 78.2188 52.2969 77.875 52.7188C77.5469 53.125 77.2109 53.5547 76.8672 54.0078C76.6797 54.2578 76.4609 54.5703 76.2109 54.9453C75.9766 55.3047 75.7266 55.6406 75.4609 55.9531C75.4297 55.9844 75.3672 56.0078 75.2734 56.0234C75.1797 56.0547 75.125 56.0859 75.1094 56.1172C74.9844 56.4297 74.8203 56.7266 74.6172 57.0078C74.4297 57.2891 74.1484 57.4297 73.7734 57.4297C73.3203 57.4297 72.9766 57.3203 72.7422 57.1016C72.5078 56.8984 72.3438 56.6562 72.25 56.375C72.1562 56.0938 72.1016 55.8047 72.0859 55.5078C72.0859 55.2109 72.0859 54.9766 72.0859 54.8047C72.0859 54.2422 72.1328 53.625 72.2266 52.9531C72.3203 52.2812 72.4219 51.6172 72.5312 50.9609C72.6562 50.3047 72.7656 49.6797 72.8594 49.0859C72.9531 48.4766 73 47.9609 73 47.5391H72.9062C72.7812 47.5391 72.6172 47.6797 72.4141 47.9609C72.2109 48.2266 71.9766 48.5625 71.7109 48.9688C71.4609 49.375 71.1875 49.8125 70.8906 50.2812C70.6094 50.75 70.3281 51.1797 70.0469 51.5703C69.8906 51.7734 69.7188 51.9766 69.5312 52.1797C69.3594 52.3828 69.1875 52.5625 69.0156 52.7188C68.8594 52.875 68.7266 53 68.6172 53.0938C68.5078 53.1875 68.4531 53.2266 68.4531 53.2109C68.4531 53.2422 68.4531 53.2812 68.4531 53.3281C68.4688 53.375 68.4766 53.4141 68.4766 53.4453C68.4766 53.5547 68.4062 53.6797 68.2656 53.8203C68.1406 53.9453 68 54.0703 67.8438 54.1953C67.6875 54.3047 67.5391 54.3984 67.3984 54.4766C67.2734 54.5547 67.2109 54.6016 67.2109 54.6172C67.2109 54.6484 67.2109 54.6875 67.2109 54.7344C67.2266 54.7812 67.2344 54.8203 67.2344 54.8516C67.2344 54.9141 67.1797 54.9531 67.0703 54.9688C66.9766 54.9844 66.9141 55.0156 66.8828 55.0625C66.8359 55.1875 66.7891 55.3359 66.7422 55.5078C66.7109 55.6641 66.5859 55.75 66.3672 55.7656C66.2578 55.7656 66.1406 55.8359 66.0156 55.9766C65.8906 56.1172 65.7656 56.2656 65.6406 56.4219C65.5156 56.5938 65.3906 56.75 65.2656 56.8906C65.1562 57.0469 65.0547 57.1406 64.9609 57.1719C64.6484 57.2656 64.4062 57.3125 64.2344 57.3125C64.0156 57.3125 63.8047 57.2266 63.6016 57.0547C63.4141 56.8828 63.25 56.6875 63.1094 56.4688C62.9688 56.2656 62.8516 56.0625 62.7578 55.8594C62.6797 55.6562 62.6406 55.5156 62.6406 55.4375C62.6406 55.0156 62.6562 54.5547 62.6875 54.0547C62.7188 53.5547 62.7578 53.0625 62.8047 52.5781C62.8672 52.0781 62.9453 51.6172 63.0391 51.1953C63.1328 50.7734 63.25 50.4297 63.3906 50.1641C63.4688 49.9922 63.5078 49.75 63.5078 49.4375C63.5078 49.3281 63.5 49.2188 63.4844 49.1094C63.4844 48.9844 63.4844 48.8594 63.4844 48.7344C63.4844 48.5469 63.5 48.3672 63.5312 48.1953C63.5781 48.0078 63.625 47.7969 63.6719 47.5625C63.7344 47.3281 63.7969 47.0547 63.8594 46.7422C63.9375 46.4297 64.0078 46.0547 64.0703 45.6172C64.1016 45.3203 64.125 45.0234 64.1406 44.7266C64.1719 44.4297 64.2109 44.1406 64.2578 43.8594C64.3359 43.4219 64.4219 42.9531 64.5156 42.4531C64.625 41.9531 64.6797 41.4297 64.6797 40.8828C64.6797 40.8203 64.6797 40.7344 64.6797 40.625C64.6797 40.5156 64.6719 40.4141 64.6562 40.3203C64.6406 40.2109 64.6172 40.1172 64.5859 40.0391C64.5703 39.9609 64.5391 39.9219 64.4922 39.9219C64.3672 39.9219 64.2422 39.9922 64.1172 40.1328C63.9922 40.2734 63.8672 40.4375 63.7422 40.625C63.6172 40.8125 63.4922 41 63.3672 41.1875C63.2578 41.375 63.1484 41.5156 63.0391 41.6094C62.8828 41.75 62.6797 41.8672 62.4297 41.9609C62.1953 42.0547 61.9922 42.1641 61.8203 42.2891C61.7578 42.3359 61.7109 42.4062 61.6797 42.5C61.6484 42.5781 61.6094 42.6562 61.5625 42.7344C61.5156 42.8125 61.4453 42.8828 61.3516 42.9453C61.2734 43.0078 61.1562 43.0391 61 43.0391C60.9375 43.0391 60.875 43.0312 60.8125 43.0156C60.7656 42.9844 60.7422 42.9062 60.7422 42.7812C60.7422 42.4844 60.8516 42.2344 61.0703 42.0312C61.3047 41.8125 61.4922 41.6094 61.6328 41.4219C61.6953 41.3438 61.7188 41.2578 61.7031 41.1641C61.7031 41.0547 61.7422 40.9609 61.8203 40.8828C61.8984 40.8047 62.0234 40.7109 62.1953 40.6016C62.3672 40.4922 62.5312 40.3594 62.6875 40.2031C62.75 40.125 62.7812 40.0391 62.7812 39.9453C62.7812 39.8359 62.8047 39.7422 62.8516 39.6641C62.9453 39.5703 63.1016 39.4688 63.3203 39.3594C63.5547 39.25 63.75 39.125 63.9062 38.9844C63.9531 38.9375 64.0156 38.8594 64.0938 38.75C64.1719 38.625 64.2578 38.5078 64.3516 38.3984C64.4453 38.2734 64.5391 38.1641 64.6328 38.0703C64.7422 37.9766 64.8516 37.9297 64.9609 37.9297C65.0391 37.9297 65.125 37.8672 65.2188 37.7422C65.3281 37.6016 65.4375 37.4453 65.5469 37.2734C65.6562 37.0859 65.7656 36.9062 65.875 36.7344C65.9844 36.5625 66.0859 36.4375 66.1797 36.3594C66.2891 36.2656 66.4375 36.1953 66.625 36.1484C66.8125 36.0859 67.0156 36.0547 67.2344 36.0547C67.4844 36.0547 67.7031 36.1016 67.8906 36.1953C68.0781 36.2734 68.1719 36.4375 68.1719 36.6875C68.1719 36.7969 68.1562 36.9375 68.125 37.1094C68.1094 37.2812 68.0859 37.4531 68.0547 37.625C68.0234 37.7969 67.9922 37.9688 67.9609 38.1406C67.9453 38.2969 67.9375 38.4141 67.9375 38.4922C67.9375 38.6328 67.9531 38.7422 67.9844 38.8203C68.0312 38.8984 68.0547 38.9922 68.0547 39.1016C68.0547 39.1641 68.0078 39.2969 67.9141 39.5C67.8203 39.7031 67.7188 39.9531 67.6094 40.25C67.5156 40.5312 67.4219 40.8516 67.3281 41.2109C67.2344 41.5547 67.1875 41.8984 67.1875 42.2422C67.1875 42.4766 67.1953 42.6953 67.2109 42.8984C67.2266 43.1016 67.2344 43.3047 67.2344 43.5078C67.2344 43.8828 67.1797 44.2344 67.0703 44.5625C67.0547 44.5938 67.0156 44.625 66.9531 44.6562C66.9062 44.6719 66.8828 44.7188 66.8828 44.7969C66.8828 44.8594 66.8906 44.9531 66.9062 45.0781C66.9219 45.1875 66.9297 45.3125 66.9297 45.4531C66.9297 45.625 66.9062 45.7422 66.8594 45.8047C66.8281 45.8516 66.7812 45.8906 66.7188 45.9219C66.6719 45.9375 66.625 45.9609 66.5781 45.9922C66.5469 46.0234 66.5312 46.1016 66.5312 46.2266C66.5312 46.3672 66.5547 46.5078 66.6016 46.6484C66.6641 46.7734 66.6953 46.9609 66.6953 47.2109C66.6953 47.4297 66.6562 47.6875 66.5781 47.9844C66.5 48.2812 66.4141 48.625 66.3203 49.0156C66.2266 49.4062 66.1406 49.8438 66.0625 50.3281C65.9844 50.7969 65.9453 51.3125 65.9453 51.875C65.9453 52.3594 65.9609 52.7578 65.9922 53.0703C66.0391 53.3672 66.125 53.5156 66.25 53.5156C66.4844 53.5156 66.7578 53.3828 67.0703 53.1172C67.3984 52.8359 67.7422 52.4766 68.1016 52.0391C68.4609 51.5859 68.8203 51.0938 69.1797 50.5625C69.5547 50.0156 69.8984 49.4766 70.2109 48.9453C70.5391 48.3984 70.8203 47.8984 71.0547 47.4453C71.3047 46.9766 71.4922 46.6016 71.6172 46.3203C71.9766 45.4609 72.3125 44.6172 72.625 43.7891C72.9531 42.9609 73.3203 42.0547 73.7266 41.0703C73.7578 40.9453 73.7734 40.8203 73.7734 40.6953C73.7734 40.5547 73.7734 40.4141 73.7734 40.2734V39.7344C73.7734 39.3906 73.8203 39.1328 73.9141 38.9609C74.0234 38.7891 74.1562 38.6641 74.3125 38.5859C74.4844 38.4922 74.6719 38.4219 74.875 38.375C75.0781 38.3125 75.2734 38.2188 75.4609 38.0938C75.6797 37.9531 75.8906 37.7891 76.0938 37.6016C76.2969 37.4141 76.4922 37.2344 76.6797 37.0625C76.8828 36.8906 77.0781 36.7422 77.2656 36.6172C77.4688 36.4766 77.6875 36.3906 77.9219 36.3594C77.9219 36.4531 77.8984 36.5391 77.8516 36.6172C77.8047 36.6797 77.75 36.7578 77.6875 36.8516C77.625 36.9297 77.5625 37.0234 77.5 37.1328C77.4375 37.2422 77.3984 37.3906 77.3828 37.5781C77.3672 37.7188 77.3281 37.9219 77.2656 38.1875C77.2188 38.4375 77.1406 38.7031 77.0312 38.9844C77.0156 39.0156 76.9844 39.0312 76.9375 39.0312C76.8906 39.0156 76.8672 39.0547 76.8672 39.1484C76.8516 39.3359 76.8281 39.6562 76.7969 40.1094C76.7656 40.5625 76.7266 41 76.6797 41.4219C76.6484 41.7188 76.5547 42.0312 76.3984 42.3594C76.2422 42.6719 76.1562 43.0078 76.1406 43.3672C76.1406 43.4453 76.1484 43.4922 76.1641 43.5078C76.1953 43.5234 76.2109 43.5625 76.2109 43.625C76.2109 43.8125 76.1406 44 76 44.1875C75.875 44.3594 75.8125 44.5078 75.8125 44.6328C75.8125 44.8359 75.8359 45.0547 75.8828 45.2891C75.9453 45.5234 75.9766 45.75 75.9766 45.9688C75.9766 46.2344 75.9297 46.4922 75.8359 46.7422C75.7422 46.9766 75.6719 47.2422 75.625 47.5391C75.5625 47.8359 75.5312 48.1328 75.5312 48.4297C75.5312 48.7266 75.5078 49.0156 75.4609 49.2969C75.3672 49.875 75.2578 50.4375 75.1328 50.9844C75.0078 51.5156 74.9453 51.9609 74.9453 52.3203C74.9453 52.5078 74.9688 52.6875 75.0156 52.8594C75.0625 53.0156 75.1094 53.1562 75.1562 53.2812C75.2188 53.4062 75.2656 53.5078 75.2969 53.5859C75.3438 53.6641 75.3672 53.7031 75.3672 53.7031C75.4766 53.7031 75.6172 53.6641 75.7891 53.5859C75.9609 53.4922 76.125 53.3906 76.2812 53.2812C76.4375 53.1719 76.5703 53.0625 76.6797 52.9531C76.8047 52.8438 76.8672 52.7656 76.8672 52.7188C76.8672 52.6875 76.8594 52.6562 76.8438 52.625C76.8438 52.5781 76.8438 52.5391 76.8438 52.5078C76.8438 52.4141 76.9062 52.3594 77.0312 52.3438C77.1562 52.3281 77.2188 52.2734 77.2188 52.1797C77.2188 52.1484 77.2109 52.1094 77.1953 52.0625C77.1953 52.0156 77.1953 51.9766 77.1953 51.9453C77.1953 51.8828 77.2344 51.7969 77.3125 51.6875C77.4062 51.5781 77.5 51.4688 77.5938 51.3594C77.7031 51.2344 77.8047 51.1328 77.8984 51.0547C77.9922 50.9609 78.0547 50.8984 78.0859 50.8672C78.1172 50.8359 78.1406 50.7812 78.1562 50.7031C78.1875 50.625 78.2266 50.5469 78.2734 50.4688C78.3359 50.375 78.4219 50.2969 78.5312 50.2344C78.6406 50.1719 78.7891 50.1406 78.9766 50.1406C79.0078 50.1406 79.0312 50.1484 79.0469 50.1641C79.0781 50.1641 79.1094 50.1641 79.1406 50.1641ZM104.289 15.4766V15.4531C104.023 16.0156 103.805 16.4609 103.633 16.7891C103.477 17.1172 103.328 17.3906 103.188 17.6094C103.047 17.8125 102.914 17.9922 102.789 18.1484C102.664 18.3047 102.508 18.5 102.32 18.7344C102.227 18.7656 102.062 18.8906 101.828 19.1094C101.594 19.3281 101.344 19.5703 101.078 19.8359C100.812 20.1016 100.562 20.3438 100.328 20.5625C100.094 20.7812 99.9297 20.9062 99.8359 20.9375C99.7891 21.0781 99.6875 21.2188 99.5312 21.3594C99.3906 21.5 99.2188 21.6328 99.0156 21.7578C98.8125 21.8828 98.6016 22.0156 98.3828 22.1562C98.1641 22.2812 97.9609 22.4062 97.7734 22.5312C97.4609 22.75 97.1953 22.9375 96.9766 23.0938C96.7734 23.2344 96.5703 23.3672 96.3672 23.4922C96.1641 23.6172 95.9453 23.7344 95.7109 23.8438C95.4766 23.9375 95.1797 24.0391 94.8203 24.1484C94.1641 24.3516 93.4297 24.5234 92.6172 24.6641C91.8047 24.8047 91.0234 24.875 90.2734 24.875C89.7891 24.875 89.3047 24.8516 88.8203 24.8047C88.3359 24.7422 87.9688 24.6484 87.7188 24.5234C87.625 24.6172 87.5781 24.6797 87.5781 24.7109C87.5781 24.7734 87.6172 24.8281 87.6953 24.875C87.7734 24.9062 87.8359 24.9609 87.8828 25.0391C87.9453 25.1328 88 25.25 88.0469 25.3906C88.0938 25.5312 88.1562 25.6484 88.2344 25.7422C88.3906 25.9453 88.5703 26.125 88.7734 26.2812C88.9922 26.4375 89.1641 26.6094 89.2891 26.7969C89.3672 26.8906 89.4219 27.0312 89.4531 27.2188C89.5 27.3906 89.5625 27.5391 89.6406 27.6641C89.7188 27.8047 89.8047 27.9297 89.8984 28.0391C90.0078 28.1328 90.1016 28.2422 90.1797 28.3672C90.4766 28.8984 90.7344 29.3906 90.9531 29.8438C91.1719 30.2969 91.4375 30.7969 91.75 31.3438C91.8125 31.4688 91.8984 31.5859 92.0078 31.6953C92.1172 31.8047 92.2031 31.9219 92.2656 32.0469C92.3125 32.1719 92.3359 32.3125 92.3359 32.4688C92.3516 32.625 92.3906 32.7734 92.4531 32.9141C92.6406 33.4453 92.8438 34 93.0625 34.5781C93.2969 35.1406 93.5 35.6953 93.6719 36.2422C93.75 36.5391 93.8047 36.8594 93.8359 37.2031C93.8828 37.5469 93.9453 37.8672 94.0234 38.1641C94.1641 38.7266 94.2969 39.2188 94.4219 39.6406C94.5469 40.0625 94.6094 40.5703 94.6094 41.1641C94.6094 41.4297 94.6016 41.6953 94.5859 41.9609C94.5703 42.2266 94.5547 42.4844 94.5391 42.7344C94.5078 42.9688 94.4297 43.2031 94.3047 43.4375C94.1953 43.6719 94.1484 43.9219 94.1641 44.1875C94.1641 44.3125 94.1719 44.4375 94.1875 44.5625C94.2031 44.6719 94.2109 44.7812 94.2109 44.8906C94.2109 45.2188 94.1641 45.5547 94.0703 45.8984C93.9766 46.2266 93.8672 46.5703 93.7422 46.9297C93.6172 47.2734 93.4844 47.625 93.3438 47.9844C93.2031 48.3281 93.0781 48.6719 92.9688 49.0156C92.9062 49.2344 92.8047 49.4766 92.6641 49.7422C92.5391 50.0078 92.4062 50.2656 92.2656 50.5156C92.125 50.7656 92 50.9922 91.8906 51.1953C91.7969 51.3984 91.75 51.5469 91.75 51.6406C91.75 51.7188 91.7109 51.7812 91.6328 51.8281C91.5703 51.8594 91.4844 51.8906 91.375 51.9219C91.2812 51.9531 91.1797 51.9922 91.0703 52.0391C90.9766 52.0703 90.9062 52.1172 90.8594 52.1797C90.7031 52.3984 90.5859 52.6719 90.5078 53C90.4453 53.3125 90.3359 53.6172 90.1797 53.9141C90.1641 53.9297 90.1094 53.9922 90.0156 54.1016C89.9219 54.1953 89.8203 54.3125 89.7109 54.4531C89.6016 54.5781 89.5 54.7031 89.4062 54.8281C89.3281 54.9531 89.2891 55.0547 89.2891 55.1328C89.2891 55.2109 89.25 55.2734 89.1719 55.3203C89.0938 55.3516 88.9922 55.3906 88.8672 55.4375C88.7578 55.4844 88.625 55.5391 88.4688 55.6016C88.3281 55.6641 88.1953 55.75 88.0703 55.8594C88.0078 55.9062 87.9531 55.9766 87.9062 56.0703C87.8594 56.1797 87.7969 56.2812 87.7188 56.375C87.6562 56.4688 87.5781 56.5547 87.4844 56.6328C87.3906 56.7109 87.2734 56.75 87.1328 56.75C87.0547 56.75 86.9609 56.7422 86.8516 56.7266C86.7578 56.7109 86.6719 56.7031 86.5938 56.7031C86.4688 56.7031 86.3672 56.7656 86.2891 56.8906C86.2109 57.0156 86.1094 57.0781 85.9844 57.0781C85.8438 57.0781 85.7422 57.0547 85.6797 57.0078C85.6328 56.9766 85.5859 56.9297 85.5391 56.8672C85.5078 56.8203 85.4766 56.7656 85.4453 56.7031C85.4141 56.6406 85.3516 56.5859 85.2578 56.5391C85.0859 56.4609 84.8828 56.4219 84.6484 56.4219C84.4141 56.4219 84.2656 56.4062 84.2031 56.375C84.1094 56.2969 83.9922 56.1094 83.8516 55.8125C83.7266 55.5156 83.5625 55.2344 83.3594 54.9688C83.2344 54.8281 83.1172 54.7109 83.0078 54.6172C82.9141 54.5234 82.8203 54.4375 82.7266 54.3594C82.6328 54.2656 82.5469 54.1641 82.4688 54.0547C82.4062 53.9297 82.3516 53.7656 82.3047 53.5625C82.2734 53.4375 82.2109 53.3516 82.1172 53.3047C82.0391 53.2578 81.9844 53.1719 81.9531 53.0469C81.8438 52.75 81.7734 52.4922 81.7422 52.2734C81.7109 52.0547 81.6562 51.7812 81.5781 51.4531C81.5781 51.3906 81.5547 51.2969 81.5078 51.1719C81.4766 51.0312 81.4375 50.8906 81.3906 50.75C81.3594 50.5938 81.3281 50.4453 81.2969 50.3047C81.2656 50.1484 81.25 50.0234 81.25 49.9297C81.25 49.4922 81.2734 49.0547 81.3203 48.6172C81.3828 48.1797 81.4141 47.7734 81.4141 47.3984C81.4141 47.1953 81.4219 47 81.4375 46.8125C81.4531 46.625 81.5 46.4219 81.5781 46.2031C81.6094 46.1562 81.6719 46.0703 81.7656 45.9453C81.8594 45.8203 81.9219 45.7344 81.9531 45.6875C82.0625 45.2969 82.1797 44.9375 82.3047 44.6094C82.4297 44.2656 82.5781 43.9141 82.75 43.5547C82.9219 43.1797 83.125 42.7656 83.3594 42.3125C83.5938 41.8438 83.875 41.2812 84.2031 40.625C84.2344 40.5625 84.2578 40.4766 84.2734 40.3672C84.3047 40.2422 84.3438 40.1562 84.3906 40.1094C84.4062 40.0938 84.4453 40.0703 84.5078 40.0391C84.5859 40.0078 84.6641 39.9766 84.7422 39.9453C84.8359 39.8984 84.9141 39.8594 84.9766 39.8281C85.0547 39.7812 85.0938 39.7344 85.0938 39.6875C85.0938 39.6562 85.0859 39.6172 85.0703 39.5703C85.0703 39.5234 85.0703 39.4844 85.0703 39.4531C85.0703 39.4531 85.1406 39.375 85.2812 39.2188C85.4219 39.0625 85.5859 38.8828 85.7734 38.6797C85.9609 38.4609 86.1484 38.25 86.3359 38.0469C86.5391 37.8438 86.7031 37.7109 86.8281 37.6484C86.9531 37.5859 87.0781 37.5625 87.2031 37.5781C87.3281 37.5781 87.4453 37.5469 87.5547 37.4844C87.6953 37.375 87.8203 37.2188 87.9297 37.0156C88.0391 36.8125 88.1406 36.6719 88.2344 36.5938C88.375 36.4688 88.5469 36.3359 88.75 36.1953C88.9531 36.0547 89.1406 35.9141 89.3125 35.7734C89.5 35.6328 89.6562 35.5078 89.7812 35.3984C89.9219 35.2734 89.9922 35.1719 89.9922 35.0938C89.9922 34.8906 89.9219 34.6484 89.7812 34.3672C89.6406 34.0859 89.4766 33.8125 89.2891 33.5469C89.1172 33.2812 88.9609 33.0469 88.8203 32.8438C88.6797 32.625 88.6094 32.4766 88.6094 32.3984C88.5938 32.2891 88.5391 32.1719 88.4453 32.0469C88.3516 31.9219 88.25 31.7969 88.1406 31.6719C88.0312 31.5312 87.9297 31.4062 87.8359 31.2969C87.7578 31.1875 87.7188 31.0859 87.7188 30.9922C87.7188 30.8984 87.6719 30.7891 87.5781 30.6641C87.4844 30.5234 87.3828 30.3828 87.2734 30.2422C87.1641 30.1016 87.0625 29.9688 86.9688 29.8438C86.875 29.7188 86.8281 29.6172 86.8281 29.5391C86.8281 29.2266 86.6484 28.8672 86.2891 28.4609C85.9453 28.0391 85.5469 27.5469 85.0938 26.9844C85.0781 26.9688 85.0703 26.9453 85.0703 26.9141C85.0703 26.8828 85.0703 26.8438 85.0703 26.7969C85.0859 26.75 85.0938 26.7109 85.0938 26.6797C85.0938 26.6016 85 26.4766 84.8125 26.3047C84.6406 26.1328 84.4453 25.9453 84.2266 25.7422C84.0078 25.5391 83.8047 25.3438 83.6172 25.1562C83.4453 24.9531 83.3594 24.7969 83.3594 24.6875C83.3438 24.5469 83.2109 24.375 82.9609 24.1719C82.7266 23.9688 82.4688 23.7578 82.1875 23.5391C81.9062 23.3047 81.6484 23.0781 81.4141 22.8594C81.1797 22.625 81.0625 22.4219 81.0625 22.25C81.1094 21.9531 81.1953 21.7812 81.3203 21.7344C81.4609 21.6875 81.6719 21.625 81.9531 21.5469C82.0469 21.5312 82.1719 21.4844 82.3281 21.4062C82.4844 21.3281 82.6484 21.25 82.8203 21.1719C82.9922 21.0781 83.1719 21 83.3594 20.9375C83.5469 20.875 83.7188 20.8438 83.875 20.8438C84.1406 20.8438 84.4297 20.8984 84.7422 21.0078C85.0703 21.1016 85.3594 21.2188 85.6094 21.3594C85.6562 21.3906 85.7188 21.4609 85.7969 21.5703C85.875 21.6641 85.9375 21.7188 85.9844 21.7344C86.2031 21.8125 86.4531 21.8438 86.7344 21.8281C87.0156 21.7969 87.2891 21.8203 87.5547 21.8984C87.6641 21.9297 87.7578 22 87.8359 22.1094C87.9141 22.2188 88.0156 22.2734 88.1406 22.2734C88.1719 22.2734 88.2031 22.2734 88.2344 22.2734C88.2812 22.2578 88.3203 22.25 88.3516 22.25C88.4141 22.25 88.5625 22.2734 88.7969 22.3203C89.0312 22.3516 89.3047 22.3906 89.6172 22.4375C89.9453 22.4844 90.2812 22.5312 90.625 22.5781C90.9844 22.6094 91.3047 22.625 91.5859 22.625C91.9766 22.625 92.4375 22.5859 92.9688 22.5078C93.5 22.4297 94.0312 22.3281 94.5625 22.2031C95.0938 22.0625 95.5859 21.8984 96.0391 21.7109C96.5078 21.5234 96.8672 21.3203 97.1172 21.1016C97.2422 20.9922 97.3516 20.8672 97.4453 20.7266C97.5391 20.5859 97.6562 20.4531 97.7969 20.3281C98.0156 20.125 98.25 19.9609 98.5 19.8359C98.7656 19.6953 99.0312 19.5078 99.2969 19.2734C99.7031 18.9141 100.164 18.4922 100.68 18.0078C101.211 17.5078 101.672 17.0234 102.062 16.5547C102.156 16.4453 102.281 16.2891 102.438 16.0859C102.594 15.8672 102.75 15.625 102.906 15.3594C103.062 15.0781 103.211 14.7891 103.352 14.4922C103.492 14.1797 103.602 13.8828 103.68 13.6016C103.711 13.2891 103.781 13.0469 103.891 12.875C104.016 12.6875 104.141 12.5938 104.266 12.5938C104.516 12.5938 104.641 12.8672 104.641 13.4141C104.641 13.4141 104.625 13.5234 104.594 13.7422C104.562 13.9453 104.523 14.1797 104.477 14.4453C104.445 14.6953 104.406 14.9297 104.359 15.1484C104.328 15.3672 104.305 15.4766 104.289 15.4766ZM91.9141 41.6797C91.9141 41.5391 91.8984 41.4375 91.8672 41.375C91.8516 41.2969 91.8203 41.2266 91.7734 41.1641C91.7422 41.0859 91.7031 40.9922 91.6562 40.8828C91.625 40.7734 91.5938 40.625 91.5625 40.4375C91.5 40.125 91.4766 39.8125 91.4922 39.5C91.5078 39.1719 91.4766 38.8438 91.3984 38.5156C91.2891 38.0938 91.1641 37.7266 91.0234 37.4141C90.8828 37.0859 90.7969 36.9219 90.7656 36.9219C90.5469 36.9219 90.375 36.9766 90.25 37.0859C90.125 37.1953 90.0391 37.2656 89.9922 37.2969C89.8516 37.375 89.6797 37.4453 89.4766 37.5078C89.2891 37.5703 89.1094 37.6719 88.9375 37.8125C88.75 37.9844 88.5078 38.2344 88.2109 38.5625C87.9141 38.875 87.625 39.2031 87.3438 39.5469C87.0625 39.875 86.8203 40.1719 86.6172 40.4375C86.4141 40.6875 86.3047 40.8203 86.2891 40.8359C86.0547 41.4453 85.8906 41.8828 85.7969 42.1484C85.7188 42.4141 85.6641 42.6172 85.6328 42.7578C85.6016 42.8984 85.5781 43.0312 85.5625 43.1562C85.5625 43.2656 85.5234 43.4688 85.4453 43.7656C85.4141 43.8906 85.3438 44.0156 85.2344 44.1406C85.125 44.25 85.0703 44.3906 85.0703 44.5625C85.0703 44.6719 85.0781 44.7734 85.0938 44.8672C85.1094 44.9609 85.1172 45.0547 85.1172 45.1484C85.1172 45.3047 85.0859 45.4531 85.0234 45.5938C84.9766 45.7188 84.9219 45.8438 84.8594 45.9688C84.7969 46.0938 84.7344 46.2188 84.6719 46.3438C84.625 46.4688 84.6016 46.6016 84.6016 46.7422C84.6016 46.9609 84.6172 47.2422 84.6484 47.5859C84.6953 47.9297 84.7422 48.2891 84.7891 48.6641C84.8359 49.0234 84.8828 49.3672 84.9297 49.6953C84.9922 50.0234 85.0469 50.2656 85.0938 50.4219C85.0938 50.4688 85.0859 50.5156 85.0703 50.5625C85.0703 50.5938 85.0703 50.6328 85.0703 50.6797C85.0703 50.7422 85.1172 50.8359 85.2109 50.9609C85.3203 51.0703 85.3984 51.1797 85.4453 51.2891C85.5859 51.6953 85.7578 52.0703 85.9609 52.4141C86.1641 52.7422 86.3672 53.0312 86.5703 53.2812C86.7891 53.5312 87 53.7266 87.2031 53.8672C87.4062 54.0078 87.5781 54.0781 87.7188 54.0781C87.8281 54.0781 87.9766 53.9766 88.1641 53.7734C88.3672 53.5547 88.5781 53.2969 88.7969 53C89.0312 52.6875 89.25 52.3672 89.4531 52.0391C89.6719 51.6953 89.8516 51.3906 89.9922 51.125C90.2109 50.7344 90.4297 50.2891 90.6484 49.7891C90.8672 49.2891 91 48.7969 91.0469 48.3125C91.0469 48.2188 91.0703 48.1484 91.1172 48.1016C91.1641 48.0547 91.2031 48.0156 91.2344 47.9844C91.3125 47.6719 91.3516 47.3984 91.3516 47.1641C91.3516 46.9141 91.3672 46.6562 91.3984 46.3906C91.4141 46.0469 91.4531 45.6719 91.5156 45.2656C91.5781 44.8438 91.6328 44.4219 91.6797 44C91.7422 43.5781 91.7969 43.1719 91.8438 42.7812C91.8906 42.375 91.9141 42.0078 91.9141 41.6797ZM105.297 50.1875C105.359 50.3281 105.391 50.4766 105.391 50.6328C105.391 50.7891 105.352 50.9297 105.273 51.0547C105.211 51.1641 105.125 51.2734 105.016 51.3828C104.922 51.4766 104.812 51.5703 104.688 51.6641C104.578 51.7422 104.484 51.8281 104.406 51.9219C104.375 51.9844 104.352 52.0781 104.336 52.2031C104.336 52.3125 104.305 52.3984 104.242 52.4609C104.055 52.6641 103.82 52.8359 103.539 52.9766C103.273 53.1172 103.039 53.2969 102.836 53.5156C102.711 53.6562 102.617 53.7969 102.555 53.9375C102.492 54.0625 102.352 54.2109 102.133 54.3828C101.961 54.5078 101.797 54.6797 101.641 54.8984C101.484 55.1172 101.312 55.3359 101.125 55.5547C100.938 55.7578 100.719 55.9375 100.469 56.0938C100.219 56.2656 99.9219 56.3516 99.5781 56.3516C99.5 56.3516 99.4297 56.3438 99.3672 56.3281C99.3047 56.3281 99.2344 56.3203 99.1562 56.3047C99.1562 56.3047 99.1016 56.2734 98.9922 56.2109C98.8828 56.1484 98.7578 56.0234 98.6172 55.8359C98.4922 55.6484 98.375 55.3828 98.2656 55.0391C98.1562 54.6953 98.1016 54.2422 98.1016 53.6797C98.1016 53.5391 98.125 53.3906 98.1719 53.2344C98.2344 53.0625 98.2969 52.8984 98.3594 52.7422C98.4375 52.5859 98.5 52.4297 98.5469 52.2734C98.6094 52.1016 98.6406 51.9453 98.6406 51.8047C98.6406 51.6641 98.6094 51.5312 98.5469 51.4062C98.4844 51.2812 98.4531 51.1484 98.4531 51.0078C98.4531 50.8672 98.5156 50.7734 98.6406 50.7266C98.7656 50.6641 98.8281 50.5547 98.8281 50.3984C98.8281 50.3203 98.8203 50.25 98.8047 50.1875C98.8047 50.125 98.8047 50.0547 98.8047 49.9766C98.8047 49.7891 98.8359 49.6641 98.8984 49.6016C98.9609 49.5234 98.9922 49.4219 98.9922 49.2969C98.9922 49.1875 98.9688 49.1094 98.9219 49.0625C98.8906 49 98.875 48.9219 98.875 48.8281C98.875 48.7188 98.9141 48.6172 98.9922 48.5234C99.0703 48.4141 99.125 48.2656 99.1562 48.0781C99.2656 47.7188 99.3516 47.2969 99.4141 46.8125C99.4766 46.3125 99.5469 45.7812 99.625 45.2188C99.7188 44.6406 99.8203 44.0312 99.9297 43.3906C100.039 42.7344 100.195 42.0781 100.398 41.4219C100.461 41.2031 100.523 40.8906 100.586 40.4844C100.664 40.0625 100.711 39.625 100.727 39.1719C100.648 39.125 100.594 39.1016 100.562 39.1016C100.438 39.1016 100.344 39.2031 100.281 39.4062C100.234 39.6094 100.156 39.7578 100.047 39.8516C99.9688 39.9141 99.875 39.9453 99.7656 39.9453C99.6719 39.9453 99.5859 39.9688 99.5078 40.0156C99.4141 40.0938 99.3359 40.1875 99.2734 40.2969C99.2266 40.3906 99.1719 40.4844 99.1094 40.5781C99.0625 40.6719 98.9922 40.7656 98.8984 40.8594C98.8047 40.9531 98.6641 41.0234 98.4766 41.0703C98.4453 41.0859 98.4297 41.125 98.4297 41.1875C98.4297 41.2344 98.3984 41.2578 98.3359 41.2578H98.2891C98.2891 41.2109 98.25 41.1719 98.1719 41.1406C98.1094 41.0938 98.0312 41.0469 97.9375 41C97.8438 40.9531 97.7578 40.8984 97.6797 40.8359C97.6172 40.7734 97.5859 40.6953 97.5859 40.6016C97.5859 40.4609 97.6172 40.3516 97.6797 40.2734C97.7422 40.1953 97.8281 40.1328 97.9375 40.0859C98.0469 40.0391 98.1562 39.9922 98.2656 39.9453C98.3906 39.8828 98.5156 39.7969 98.6406 39.6875C98.7969 39.5312 98.9688 39.3516 99.1562 39.1484C99.3594 38.9453 99.5625 38.7422 99.7656 38.5391C99.9688 38.3203 100.18 38.1172 100.398 37.9297C100.633 37.7266 100.867 37.5469 101.102 37.3906C101.148 37.3594 101.156 37.3281 101.125 37.2969C101.109 37.2656 101.156 37.2422 101.266 37.2266C101.312 37.2266 101.375 37.2031 101.453 37.1562C101.547 37.0938 101.633 37.0312 101.711 36.9688C101.805 36.8906 101.883 36.8281 101.945 36.7812C102.008 36.7188 102.047 36.6875 102.062 36.6875C102.094 36.6875 102.125 36.6953 102.156 36.7109C102.203 36.7109 102.242 36.7109 102.273 36.7109C102.398 36.7109 102.539 36.6797 102.695 36.6172C102.867 36.5391 103.172 36.5 103.609 36.5C103.781 36.5 103.93 36.5547 104.055 36.6641C104.195 36.7578 104.266 36.9609 104.266 37.2734C104.266 37.3672 104.227 37.5156 104.148 37.7188C104.07 37.9219 103.984 38.1641 103.891 38.4453C103.797 38.7266 103.711 39.0391 103.633 39.3828C103.555 39.7266 103.516 40.0859 103.516 40.4609C103.516 40.6172 103.523 40.7812 103.539 40.9531C103.555 41.1094 103.562 41.2656 103.562 41.4219C103.562 41.7031 103.508 41.9453 103.398 42.1484C103.305 42.3359 103.234 42.5625 103.188 42.8281C103.125 43.1562 103.094 43.5 103.094 43.8594C103.094 44.2188 103.07 44.5781 103.023 44.9375C102.898 45.6875 102.75 46.4141 102.578 47.1172C102.406 47.8203 102.258 48.5469 102.133 49.2969C102.086 49.5469 102.008 49.8672 101.898 50.2578C101.805 50.6484 101.758 51.0625 101.758 51.5C101.758 51.9062 101.828 52.2812 101.969 52.625C102.203 52.6094 102.398 52.5391 102.555 52.4141C102.711 52.2891 102.852 52.1484 102.977 51.9922C103.102 51.8359 103.219 51.6719 103.328 51.5C103.453 51.3281 103.586 51.1797 103.727 51.0547C103.82 50.9766 103.953 50.9219 104.125 50.8906C104.312 50.8438 104.469 50.7812 104.594 50.7031C104.719 50.625 104.805 50.5156 104.852 50.375C104.898 50.2344 105 50.1641 105.156 50.1641C105.188 50.1641 105.211 50.1719 105.227 50.1875C105.242 50.1875 105.266 50.1875 105.297 50.1875ZM106.164 26.5625C106.211 26.6562 106.234 26.7578 106.234 26.8672C106.234 27.0547 106.172 27.2578 106.047 27.4766C105.922 27.6953 105.781 27.9062 105.625 28.1094C105.484 28.3125 105.344 28.5 105.203 28.6719C105.062 28.8281 104.977 28.9375 104.945 29C104.852 29.2031 104.773 29.4766 104.711 29.8203C104.664 30.1641 104.562 30.4766 104.406 30.7578C104.344 30.8828 104.289 30.9766 104.242 31.0391C104.195 31.1016 104.141 31.2422 104.078 31.4609C104.016 31.6016 103.938 31.7656 103.844 31.9531C103.75 32.1406 103.648 32.3203 103.539 32.4922C103.43 32.6484 103.32 32.7891 103.211 32.9141C103.102 33.0234 103 33.0781 102.906 33.0781C102.5 33.0781 102.219 32.8828 102.062 32.4922C101.922 32.0859 101.852 31.6094 101.852 31.0625C101.852 30.8438 101.859 30.6172 101.875 30.3828C101.906 30.1484 101.938 29.9219 101.969 29.7031C102 29.4688 102.078 29.2969 102.203 29.1875C102.328 29.0781 102.43 28.9062 102.508 28.6719C102.586 28.4688 102.641 28.2734 102.672 28.0859C102.703 27.8828 102.734 27.6953 102.766 27.5234C102.812 27.3516 102.859 27.2031 102.906 27.0781C102.969 26.9375 103.062 26.8203 103.188 26.7266C103.281 26.6641 103.391 26.6094 103.516 26.5625C103.656 26.5156 103.797 26.4844 103.938 26.4688C104.094 26.4375 104.242 26.4141 104.383 26.3984C104.539 26.3828 104.664 26.375 104.758 26.375C104.758 26.3906 104.828 26.3672 104.969 26.3047C105.109 26.2266 105.266 26.1875 105.438 26.1875C105.469 26.1875 105.57 26.2188 105.742 26.2812C105.93 26.3281 106.07 26.4219 106.164 26.5625ZM125.781 50.1641C125.953 50.3359 126.039 50.4922 126.039 50.6328C126.039 50.7266 126 50.8203 125.922 50.9141C125.859 50.9922 125.781 51.0703 125.688 51.1484C125.594 51.2109 125.5 51.2812 125.406 51.3594C125.328 51.4219 125.273 51.4922 125.242 51.5703C125.102 51.9141 124.859 52.2969 124.516 52.7188C124.188 53.125 123.852 53.5547 123.508 54.0078C123.32 54.2578 123.102 54.5703 122.852 54.9453C122.617 55.3047 122.367 55.6406 122.102 55.9531C122.07 55.9844 122.008 56.0078 121.914 56.0234C121.82 56.0547 121.766 56.0859 121.75 56.1172C121.625 56.4297 121.461 56.7266 121.258 57.0078C121.07 57.2891 120.789 57.4297 120.414 57.4297C119.961 57.4297 119.617 57.3203 119.383 57.1016C119.148 56.8984 118.984 56.6562 118.891 56.375C118.797 56.0938 118.742 55.8047 118.727 55.5078C118.727 55.2109 118.727 54.9766 118.727 54.8047C118.727 54.2422 118.773 53.625 118.867 52.9531C118.961 52.2812 119.062 51.6172 119.172 50.9609C119.297 50.3047 119.406 49.6797 119.5 49.0859C119.594 48.4766 119.641 47.9609 119.641 47.5391H119.547C119.422 47.5391 119.258 47.6797 119.055 47.9609C118.852 48.2266 118.617 48.5625 118.352 48.9688C118.102 49.375 117.828 49.8125 117.531 50.2812C117.25 50.75 116.969 51.1797 116.688 51.5703C116.531 51.7734 116.359 51.9766 116.172 52.1797C116 52.3828 115.828 52.5625 115.656 52.7188C115.5 52.875 115.367 53 115.258 53.0938C115.148 53.1875 115.094 53.2266 115.094 53.2109C115.094 53.2422 115.094 53.2812 115.094 53.3281C115.109 53.375 115.117 53.4141 115.117 53.4453C115.117 53.5547 115.047 53.6797 114.906 53.8203C114.781 53.9453 114.641 54.0703 114.484 54.1953C114.328 54.3047 114.18 54.3984 114.039 54.4766C113.914 54.5547 113.852 54.6016 113.852 54.6172C113.852 54.6484 113.852 54.6875 113.852 54.7344C113.867 54.7812 113.875 54.8203 113.875 54.8516C113.875 54.9141 113.82 54.9531 113.711 54.9688C113.617 54.9844 113.555 55.0156 113.523 55.0625C113.477 55.1875 113.43 55.3359 113.383 55.5078C113.352 55.6641 113.227 55.75 113.008 55.7656C112.898 55.7656 112.781 55.8359 112.656 55.9766C112.531 56.1172 112.406 56.2656 112.281 56.4219C112.156 56.5938 112.031 56.75 111.906 56.8906C111.797 57.0469 111.695 57.1406 111.602 57.1719C111.289 57.2656 111.047 57.3125 110.875 57.3125C110.656 57.3125 110.445 57.2266 110.242 57.0547C110.055 56.8828 109.891 56.6875 109.75 56.4688C109.609 56.2656 109.492 56.0625 109.398 55.8594C109.32 55.6562 109.281 55.5156 109.281 55.4375C109.281 55.0156 109.297 54.5547 109.328 54.0547C109.359 53.5547 109.398 53.0625 109.445 52.5781C109.508 52.0781 109.586 51.6172 109.68 51.1953C109.773 50.7734 109.891 50.4297 110.031 50.1641C110.109 49.9922 110.148 49.75 110.148 49.4375C110.148 49.3281 110.141 49.2188 110.125 49.1094C110.125 48.9844 110.125 48.8594 110.125 48.7344C110.125 48.5469 110.141 48.3672 110.172 48.1953C110.219 48.0078 110.266 47.7969 110.312 47.5625C110.375 47.3281 110.438 47.0547 110.5 46.7422C110.578 46.4297 110.648 46.0547 110.711 45.6172C110.742 45.3203 110.766 45.0234 110.781 44.7266C110.812 44.4297 110.852 44.1406 110.898 43.8594C110.977 43.4219 111.062 42.9531 111.156 42.4531C111.266 41.9531 111.32 41.4297 111.32 40.8828C111.32 40.8203 111.32 40.7344 111.32 40.625C111.32 40.5156 111.312 40.4141 111.297 40.3203C111.281 40.2109 111.258 40.1172 111.227 40.0391C111.211 39.9609 111.18 39.9219 111.133 39.9219C111.008 39.9219 110.883 39.9922 110.758 40.1328C110.633 40.2734 110.508 40.4375 110.383 40.625C110.258 40.8125 110.133 41 110.008 41.1875C109.898 41.375 109.789 41.5156 109.68 41.6094C109.523 41.75 109.32 41.8672 109.07 41.9609C108.836 42.0547 108.633 42.1641 108.461 42.2891C108.398 42.3359 108.352 42.4062 108.32 42.5C108.289 42.5781 108.25 42.6562 108.203 42.7344C108.156 42.8125 108.086 42.8828 107.992 42.9453C107.914 43.0078 107.797 43.0391 107.641 43.0391C107.578 43.0391 107.516 43.0312 107.453 43.0156C107.406 42.9844 107.383 42.9062 107.383 42.7812C107.383 42.4844 107.492 42.2344 107.711 42.0312C107.945 41.8125 108.133 41.6094 108.273 41.4219C108.336 41.3438 108.359 41.2578 108.344 41.1641C108.344 41.0547 108.383 40.9609 108.461 40.8828C108.539 40.8047 108.664 40.7109 108.836 40.6016C109.008 40.4922 109.172 40.3594 109.328 40.2031C109.391 40.125 109.422 40.0391 109.422 39.9453C109.422 39.8359 109.445 39.7422 109.492 39.6641C109.586 39.5703 109.742 39.4688 109.961 39.3594C110.195 39.25 110.391 39.125 110.547 38.9844C110.594 38.9375 110.656 38.8594 110.734 38.75C110.812 38.625 110.898 38.5078 110.992 38.3984C111.086 38.2734 111.18 38.1641 111.273 38.0703C111.383 37.9766 111.492 37.9297 111.602 37.9297C111.68 37.9297 111.766 37.8672 111.859 37.7422C111.969 37.6016 112.078 37.4453 112.188 37.2734C112.297 37.0859 112.406 36.9062 112.516 36.7344C112.625 36.5625 112.727 36.4375 112.82 36.3594C112.93 36.2656 113.078 36.1953 113.266 36.1484C113.453 36.0859 113.656 36.0547 113.875 36.0547C114.125 36.0547 114.344 36.1016 114.531 36.1953C114.719 36.2734 114.812 36.4375 114.812 36.6875C114.812 36.7969 114.797 36.9375 114.766 37.1094C114.75 37.2812 114.727 37.4531 114.695 37.625C114.664 37.7969 114.633 37.9688 114.602 38.1406C114.586 38.2969 114.578 38.4141 114.578 38.4922C114.578 38.6328 114.594 38.7422 114.625 38.8203C114.672 38.8984 114.695 38.9922 114.695 39.1016C114.695 39.1641 114.648 39.2969 114.555 39.5C114.461 39.7031 114.359 39.9531 114.25 40.25C114.156 40.5312 114.062 40.8516 113.969 41.2109C113.875 41.5547 113.828 41.8984 113.828 42.2422C113.828 42.4766 113.836 42.6953 113.852 42.8984C113.867 43.1016 113.875 43.3047 113.875 43.5078C113.875 43.8828 113.82 44.2344 113.711 44.5625C113.695 44.5938 113.656 44.625 113.594 44.6562C113.547 44.6719 113.523 44.7188 113.523 44.7969C113.523 44.8594 113.531 44.9531 113.547 45.0781C113.562 45.1875 113.57 45.3125 113.57 45.4531C113.57 45.625 113.547 45.7422 113.5 45.8047C113.469 45.8516 113.422 45.8906 113.359 45.9219C113.312 45.9375 113.266 45.9609 113.219 45.9922C113.188 46.0234 113.172 46.1016 113.172 46.2266C113.172 46.3672 113.195 46.5078 113.242 46.6484C113.305 46.7734 113.336 46.9609 113.336 47.2109C113.336 47.4297 113.297 47.6875 113.219 47.9844C113.141 48.2812 113.055 48.625 112.961 49.0156C112.867 49.4062 112.781 49.8438 112.703 50.3281C112.625 50.7969 112.586 51.3125 112.586 51.875C112.586 52.3594 112.602 52.7578 112.633 53.0703C112.68 53.3672 112.766 53.5156 112.891 53.5156C113.125 53.5156 113.398 53.3828 113.711 53.1172C114.039 52.8359 114.383 52.4766 114.742 52.0391C115.102 51.5859 115.461 51.0938 115.82 50.5625C116.195 50.0156 116.539 49.4766 116.852 48.9453C117.18 48.3984 117.461 47.8984 117.695 47.4453C117.945 46.9766 118.133 46.6016 118.258 46.3203C118.617 45.4609 118.953 44.6172 119.266 43.7891C119.594 42.9609 119.961 42.0547 120.367 41.0703C120.398 40.9453 120.414 40.8203 120.414 40.6953C120.414 40.5547 120.414 40.4141 120.414 40.2734V39.7344C120.414 39.3906 120.461 39.1328 120.555 38.9609C120.664 38.7891 120.797 38.6641 120.953 38.5859C121.125 38.4922 121.312 38.4219 121.516 38.375C121.719 38.3125 121.914 38.2188 122.102 38.0938C122.32 37.9531 122.531 37.7891 122.734 37.6016C122.938 37.4141 123.133 37.2344 123.32 37.0625C123.523 36.8906 123.719 36.7422 123.906 36.6172C124.109 36.4766 124.328 36.3906 124.562 36.3594C124.562 36.4531 124.539 36.5391 124.492 36.6172C124.445 36.6797 124.391 36.7578 124.328 36.8516C124.266 36.9297 124.203 37.0234 124.141 37.1328C124.078 37.2422 124.039 37.3906 124.023 37.5781C124.008 37.7188 123.969 37.9219 123.906 38.1875C123.859 38.4375 123.781 38.7031 123.672 38.9844C123.656 39.0156 123.625 39.0312 123.578 39.0312C123.531 39.0156 123.508 39.0547 123.508 39.1484C123.492 39.3359 123.469 39.6562 123.438 40.1094C123.406 40.5625 123.367 41 123.32 41.4219C123.289 41.7188 123.195 42.0312 123.039 42.3594C122.883 42.6719 122.797 43.0078 122.781 43.3672C122.781 43.4453 122.789 43.4922 122.805 43.5078C122.836 43.5234 122.852 43.5625 122.852 43.625C122.852 43.8125 122.781 44 122.641 44.1875C122.516 44.3594 122.453 44.5078 122.453 44.6328C122.453 44.8359 122.477 45.0547 122.523 45.2891C122.586 45.5234 122.617 45.75 122.617 45.9688C122.617 46.2344 122.57 46.4922 122.477 46.7422C122.383 46.9766 122.312 47.2422 122.266 47.5391C122.203 47.8359 122.172 48.1328 122.172 48.4297C122.172 48.7266 122.148 49.0156 122.102 49.2969C122.008 49.875 121.898 50.4375 121.773 50.9844C121.648 51.5156 121.586 51.9609 121.586 52.3203C121.586 52.5078 121.609 52.6875 121.656 52.8594C121.703 53.0156 121.75 53.1562 121.797 53.2812C121.859 53.4062 121.906 53.5078 121.938 53.5859C121.984 53.6641 122.008 53.7031 122.008 53.7031C122.117 53.7031 122.258 53.6641 122.43 53.5859C122.602 53.4922 122.766 53.3906 122.922 53.2812C123.078 53.1719 123.211 53.0625 123.32 52.9531C123.445 52.8438 123.508 52.7656 123.508 52.7188C123.508 52.6875 123.5 52.6562 123.484 52.625C123.484 52.5781 123.484 52.5391 123.484 52.5078C123.484 52.4141 123.547 52.3594 123.672 52.3438C123.797 52.3281 123.859 52.2734 123.859 52.1797C123.859 52.1484 123.852 52.1094 123.836 52.0625C123.836 52.0156 123.836 51.9766 123.836 51.9453C123.836 51.8828 123.875 51.7969 123.953 51.6875C124.047 51.5781 124.141 51.4688 124.234 51.3594C124.344 51.2344 124.445 51.1328 124.539 51.0547C124.633 50.9609 124.695 50.8984 124.727 50.8672C124.758 50.8359 124.781 50.7812 124.797 50.7031C124.828 50.625 124.867 50.5469 124.914 50.4688C124.977 50.375 125.062 50.2969 125.172 50.2344C125.281 50.1719 125.43 50.1406 125.617 50.1406C125.648 50.1406 125.672 50.1484 125.688 50.1641C125.719 50.1641 125.75 50.1641 125.781 50.1641ZM152.641 51.4062C152.594 51.4844 152.516 51.5234 152.406 51.5234C152.312 51.5078 152.266 51.5469 152.266 51.6406C152.266 51.6719 152.266 51.7109 152.266 51.7578C152.281 51.8047 152.289 51.8438 152.289 51.875C152.289 51.9375 152.242 52 152.148 52.0625C152.055 52.1094 151.945 52.1562 151.82 52.2031C151.695 52.25 151.57 52.2969 151.445 52.3438C151.336 52.375 151.266 52.4141 151.234 52.4609C151.219 52.4766 151.188 52.5391 151.141 52.6484C151.109 52.7578 151.062 52.8828 151 53.0234C150.938 53.1484 150.875 53.2656 150.812 53.375C150.766 53.4844 150.719 53.5391 150.672 53.5391C150.641 53.5391 150.602 53.5312 150.555 53.5156C150.508 53.5 150.461 53.4922 150.414 53.4922C150.32 53.4922 150.258 53.5781 150.227 53.75C150.211 53.9219 150.141 54.0703 150.016 54.1953C149.797 54.4141 149.477 54.7031 149.055 55.0625C148.633 55.4219 148.211 55.7734 147.789 56.1172C147.367 56.4609 146.992 56.7578 146.664 57.0078C146.352 57.2578 146.188 57.3828 146.172 57.3828C145.812 57.3828 145.578 57.2422 145.469 56.9609C145.375 56.6953 145.328 56.375 145.328 56C145.328 55.5938 145.352 55.1641 145.398 54.7109C145.461 54.2422 145.523 53.8047 145.586 53.3984C145.648 52.9766 145.703 52.6016 145.75 52.2734C145.812 51.9453 145.844 51.6953 145.844 51.5234C145.844 51.3203 145.836 51.125 145.82 50.9375C145.82 50.75 145.82 50.5625 145.82 50.375C145.82 49.8594 145.875 49.3828 145.984 48.9453C146.047 48.7266 146.133 48.5234 146.242 48.3359C146.367 48.1484 146.453 47.9453 146.5 47.7266C146.562 47.4609 146.594 47.1719 146.594 46.8594C146.609 46.5469 146.633 46.2578 146.664 45.9922C146.773 45.2734 146.875 44.5156 146.969 43.7188C147.078 42.9219 147.156 42.1016 147.203 41.2578C146.938 41.2891 146.703 41.3828 146.5 41.5391C146.297 41.6797 146.109 41.8594 145.938 42.0781C145.781 42.2969 145.633 42.5391 145.492 42.8047C145.367 43.0547 145.234 43.2969 145.094 43.5312C145.047 43.625 145.023 43.7188 145.023 43.8125C145.039 43.8906 145.008 43.9688 144.93 44.0469C144.883 44.1094 144.805 44.1484 144.695 44.1641C144.602 44.1797 144.555 44.2344 144.555 44.3281C144.555 44.375 144.562 44.4297 144.578 44.4922C144.594 44.5391 144.602 44.5938 144.602 44.6562C144.602 44.7812 144.547 44.8438 144.438 44.8438C144.328 44.8438 144.258 44.875 144.227 44.9375C144.008 45.2812 143.836 45.6562 143.711 46.0625C143.586 46.4531 143.469 46.7188 143.359 46.8594C143.328 46.8906 143.266 46.9219 143.172 46.9531C143.078 46.9844 143.023 47.0156 143.008 47.0469C142.898 47.25 142.82 47.4922 142.773 47.7734C142.727 48.0391 142.625 48.3203 142.469 48.6172C142.391 48.7578 142.305 48.9062 142.211 49.0625C142.117 49.2188 142.016 49.375 141.906 49.5312C141.797 49.6719 141.695 49.8047 141.602 49.9297C141.523 50.0391 141.461 50.125 141.414 50.1875C141.18 50.7344 141.016 51.1875 140.922 51.5469C140.828 51.9062 140.766 52.2266 140.734 52.5078C140.703 52.7734 140.68 53.0234 140.664 53.2578C140.664 53.4922 140.633 53.75 140.57 54.0312C140.539 54.1094 140.469 54.1797 140.359 54.2422C140.25 54.3047 140.195 54.3672 140.195 54.4297C140.195 54.4766 140.195 54.5312 140.195 54.5938C140.211 54.6562 140.219 54.7188 140.219 54.7812C140.219 54.875 140.156 54.9688 140.031 55.0625C139.922 55.1562 139.781 55.25 139.609 55.3438C139.453 55.4375 139.281 55.5391 139.094 55.6484C138.906 55.7422 138.75 55.8438 138.625 55.9531C138.516 56.0469 138.422 56.1562 138.344 56.2812C138.266 56.4219 138.188 56.5469 138.109 56.6562C138.031 56.7812 137.945 56.8828 137.852 56.9609C137.758 57.0391 137.648 57.0781 137.523 57.0781C137.43 57.0781 137.328 57.0547 137.219 57.0078C137.234 56.6328 137.281 56.2656 137.359 55.9062C137.453 55.5469 137.547 55.1797 137.641 54.8047C137.734 54.4297 137.812 54.0469 137.875 53.6562C137.953 53.25 137.992 52.8203 137.992 52.3672C137.992 52.2734 137.984 52.1641 137.969 52.0391C137.969 51.9141 137.961 51.7969 137.945 51.6875C137.93 51.5625 137.906 51.4609 137.875 51.3828C137.844 51.2891 137.805 51.2422 137.758 51.2422C137.773 51.1172 137.844 50.9141 137.969 50.6328C138.094 50.3359 138.195 50.0156 138.273 49.6719C138.336 49.3594 138.383 49.0469 138.414 48.7344C138.461 48.4062 138.5 48.0781 138.531 47.75C138.578 47.4062 138.633 47.0469 138.695 46.6719C138.758 46.2812 138.852 45.875 138.977 45.4531C138.992 45.4062 139.023 45.3359 139.07 45.2422C139.133 45.1328 139.164 45.0859 139.164 45.1016C139.164 44.9609 139.133 44.8281 139.07 44.7031C139.008 44.5781 138.977 44.4297 138.977 44.2578C139.039 44.2578 139.102 44.1094 139.164 43.8125C139.227 43.5 139.281 43.1641 139.328 42.8047C139.391 42.4453 139.438 42.125 139.469 41.8438C139.5 41.5469 139.516 41.4062 139.516 41.4219C139.484 41.2344 139.43 41.0781 139.352 40.9531C139.273 40.8281 139.172 40.7656 139.047 40.7656C139.031 40.7656 138.992 40.7812 138.93 40.8125C138.867 40.8281 138.797 40.8594 138.719 40.9062C138.656 40.9531 138.594 41.0156 138.531 41.0938C138.469 41.1719 138.438 41.2656 138.438 41.375C138.438 41.4375 138.438 41.5 138.438 41.5625C138.453 41.6094 138.461 41.6562 138.461 41.7031C138.461 41.8281 138.406 41.8906 138.297 41.8906C138.203 41.875 138.141 41.8984 138.109 41.9609C138.031 42.0703 137.977 42.2109 137.945 42.3828C137.914 42.5391 137.852 42.6875 137.758 42.8281C137.648 43 137.555 43.1484 137.477 43.2734C137.398 43.3828 137.32 43.5078 137.242 43.6484C137.164 43.7891 137.07 43.9609 136.961 44.1641C136.852 44.3516 136.711 44.6094 136.539 44.9375C136.398 45.2188 136.234 45.4531 136.047 45.6406C135.859 45.8281 135.727 46 135.648 46.1562C135.586 46.2812 135.555 46.4297 135.555 46.6016C135.555 46.7578 135.531 46.9062 135.484 47.0469C135.266 47.4219 135.062 47.7422 134.875 48.0078C134.703 48.2578 134.555 48.5156 134.43 48.7812C134.383 48.8594 134.344 48.9766 134.312 49.1328C134.297 49.2891 134.273 49.4609 134.242 49.6484C134.227 49.8203 134.203 49.9844 134.172 50.1406C134.156 50.2969 134.125 50.4219 134.078 50.5156C134.031 50.625 133.945 50.7188 133.82 50.7969C133.695 50.875 133.602 50.9609 133.539 51.0547C133.492 51.1641 133.469 51.3047 133.469 51.4766C133.469 51.6484 133.438 51.7969 133.375 51.9219C133.375 51.9062 133.344 51.9531 133.281 52.0625C133.234 52.1719 133.18 52.2969 133.117 52.4375C133.055 52.5781 132.992 52.7188 132.93 52.8594C132.883 53 132.859 53.0938 132.859 53.1406C132.859 53.3594 132.883 53.5703 132.93 53.7734C132.977 53.9609 133 54.1328 133 54.2891C133 54.4141 132.969 54.5156 132.906 54.5938C132.844 54.6719 132.711 54.7188 132.508 54.7344C132.43 54.7344 132.367 54.7656 132.32 54.8281C132.289 54.875 132.258 54.9375 132.227 55.0156C132.195 55.0781 132.156 55.1406 132.109 55.2031C132.062 55.25 132 55.2734 131.922 55.2734C131.891 55.2734 131.852 55.2734 131.805 55.2734C131.758 55.2578 131.719 55.25 131.688 55.25C131.641 55.25 131.539 55.3281 131.383 55.4844C131.227 55.625 131.055 55.7969 130.867 56C130.68 56.2031 130.492 56.3984 130.305 56.5859C130.117 56.7734 129.977 56.9141 129.883 57.0078C129.727 57.1328 129.562 57.2734 129.391 57.4297C129.219 57.6016 129.039 57.6953 128.852 57.7109C128.836 57.6484 128.828 57.5625 128.828 57.4531C128.828 57.1406 128.898 56.8438 129.039 56.5625C129.195 56.2969 129.305 56.0312 129.367 55.7656C129.492 55.2188 129.57 54.5703 129.602 53.8203C129.648 53.0703 129.742 52.2656 129.883 51.4062C129.883 51.375 129.906 51.3281 129.953 51.2656C130.016 51.2031 130.055 51.1328 130.07 51.0547C130.07 50.9766 130.062 50.8984 130.047 50.8203C130.047 50.7422 130.047 50.6641 130.047 50.5859C130.047 50.5234 130.062 50.3828 130.094 50.1641C130.141 49.9297 130.195 49.6562 130.258 49.3438C130.32 49.0312 130.383 48.7031 130.445 48.3594C130.508 48 130.555 47.6719 130.586 47.375C130.648 46.8594 130.672 46.3516 130.656 45.8516C130.656 45.3359 130.688 44.8594 130.75 44.4219C130.781 44.2031 130.828 43.9375 130.891 43.625C130.969 43.3125 131.047 42.9922 131.125 42.6641C131.203 42.3203 131.273 41.9922 131.336 41.6797C131.398 41.3672 131.43 41.1016 131.43 40.8828C131.43 40.5391 131.344 40.3672 131.172 40.3672C131.047 40.3672 130.883 40.4375 130.68 40.5781C130.477 40.7188 130.266 40.8828 130.047 41.0703C129.844 41.2578 129.641 41.4531 129.438 41.6562C129.25 41.8594 129.109 42.0156 129.016 42.125C128.984 42.1719 128.938 42.2734 128.875 42.4297C128.812 42.5859 128.742 42.7188 128.664 42.8281C128.633 42.8594 128.57 42.8906 128.477 42.9219C128.383 42.9531 128.328 42.9844 128.312 43.0156C128.266 43.1094 128.242 43.2031 128.242 43.2969C128.242 43.3906 128.227 43.4766 128.195 43.5547C128.18 43.6328 128.125 43.7031 128.031 43.7656C127.938 43.8125 127.773 43.8359 127.539 43.8359C127.367 43.8359 127.219 43.7969 127.094 43.7188C126.984 43.6406 126.93 43.5391 126.93 43.4141C126.93 43.3047 126.977 43.1953 127.07 43.0859C127.164 42.9609 127.289 42.8125 127.445 42.6406H127.469C127.5 42.6406 127.539 42.6484 127.586 42.6641C127.633 42.6641 127.68 42.6641 127.727 42.6641C127.789 42.6641 127.867 42.5547 127.961 42.3359C128.07 42.1172 128.188 41.9375 128.312 41.7969C128.422 41.6875 128.562 41.5547 128.734 41.3984C128.906 41.2422 129.078 41.0859 129.25 40.9297C129.422 40.7734 129.57 40.625 129.695 40.4844C129.82 40.3438 129.883 40.2344 129.883 40.1562C129.883 40.125 129.875 40.0859 129.859 40.0391C129.859 39.9922 129.859 39.9531 129.859 39.9219C129.859 39.8438 129.93 39.7266 130.07 39.5703C130.227 39.3984 130.398 39.2266 130.586 39.0547C130.789 38.8828 130.984 38.7109 131.172 38.5391C131.375 38.3672 131.531 38.2266 131.641 38.1172C131.953 37.8047 132.273 37.4922 132.602 37.1797C132.945 36.8672 133.312 36.7109 133.703 36.7109C133.797 36.7109 133.906 36.7344 134.031 36.7812C134.156 36.8281 134.273 36.9062 134.383 37.0156C134.508 37.125 134.609 37.2656 134.688 37.4375C134.781 37.6094 134.828 37.8203 134.828 38.0703C134.828 38.5234 134.75 39.0234 134.594 39.5703C134.438 40.1172 134.328 40.6172 134.266 41.0703C134.203 41.5078 134.164 41.9297 134.148 42.3359C134.148 42.7266 134.141 43.1016 134.125 43.4609C134.109 43.8203 134.078 44.1641 134.031 44.4922C133.984 44.8203 133.883 45.1406 133.727 45.4531H133.82C134.055 45.4531 134.242 45.3828 134.383 45.2422C134.523 45.0859 134.641 44.8984 134.734 44.6797C134.828 44.4609 134.914 44.2344 134.992 44C135.086 43.75 135.195 43.5391 135.32 43.3672C135.336 43.3359 135.391 43.3047 135.484 43.2734C135.578 43.2422 135.633 43.2109 135.648 43.1797C135.711 43.0703 135.758 42.9297 135.789 42.7578C135.82 42.5859 135.891 42.4375 136 42.3125C136.125 42.1562 136.273 42.0156 136.445 41.8906C136.617 41.75 136.766 41.5938 136.891 41.4219C136.969 41.3281 137.031 41.2109 137.078 41.0703C137.125 40.9141 137.289 40.6875 137.57 40.3906C137.836 40.1094 138.117 39.8281 138.414 39.5469C138.727 39.2656 139.031 38.9609 139.328 38.6328C139.453 38.4922 139.555 38.3594 139.633 38.2344C139.711 38.0938 139.789 37.9688 139.867 37.8594C139.961 37.7344 140.055 37.625 140.148 37.5312C140.258 37.4219 140.398 37.3203 140.57 37.2266C140.664 37.1641 140.773 37.1406 140.898 37.1562C141.023 37.1719 141.141 37.1406 141.25 37.0625C141.312 37.0156 141.359 36.9609 141.391 36.8984C141.422 36.8359 141.453 36.7812 141.484 36.7344C141.531 36.6719 141.586 36.625 141.648 36.5938C141.727 36.5625 141.844 36.5469 142 36.5469C142.344 36.5469 142.617 36.6172 142.82 36.7578C143.039 36.8984 143.148 37.0859 143.148 37.3203C143.148 37.5391 143.078 37.6953 142.938 37.7891C142.797 37.8828 142.703 37.9922 142.656 38.1172C142.594 38.3047 142.555 38.5312 142.539 38.7969C142.539 39.0625 142.516 39.2969 142.469 39.5C142.344 40 142.219 40.5156 142.094 41.0469C141.984 41.5781 141.93 42.0156 141.93 42.3594C141.93 42.5156 141.93 42.6562 141.93 42.7812C141.945 42.9062 141.953 43.0312 141.953 43.1562C141.953 43.5625 141.883 43.9531 141.742 44.3281C141.617 44.6875 141.555 45.1094 141.555 45.5938C141.555 45.6719 141.555 45.7656 141.555 45.875C141.57 45.9688 141.586 46.0625 141.602 46.1562C141.805 46.1406 141.977 46.0703 142.117 45.9453C142.258 45.8203 142.383 45.6719 142.492 45.5C142.617 45.3125 142.727 45.125 142.82 44.9375C142.93 44.7344 143.055 44.5625 143.195 44.4219C143.508 44 143.781 43.6094 144.016 43.25C144.25 42.8906 144.469 42.5391 144.672 42.1953C144.891 41.8516 145.109 41.5078 145.328 41.1641C145.562 40.8047 145.836 40.4219 146.148 40.0156C146.273 39.8594 146.414 39.7266 146.57 39.6172C146.742 39.4922 146.898 39.3438 147.039 39.1719C147.18 39 147.297 38.8125 147.391 38.6094C147.5 38.3906 147.609 38.2266 147.719 38.1172C147.922 38.1172 148.117 38.0312 148.305 37.8594C148.508 37.6875 148.711 37.5 148.914 37.2969C149.117 37.0781 149.32 36.8828 149.523 36.7109C149.727 36.5391 149.945 36.4531 150.18 36.4531C150.445 36.4531 150.633 36.5703 150.742 36.8047C150.852 37.0391 150.906 37.3594 150.906 37.7656C150.906 38.1562 150.875 38.5 150.812 38.7969C150.766 39.0938 150.703 39.3906 150.625 39.6875C150.547 39.9844 150.461 40.3047 150.367 40.6484C150.289 40.9766 150.227 41.3594 150.18 41.7969C150.148 41.9531 150.086 42.1094 149.992 42.2656C149.914 42.4219 149.859 42.6094 149.828 42.8281C149.75 43.3594 149.703 43.9141 149.688 44.4922C149.672 45.0703 149.602 45.625 149.477 46.1562C149.445 46.3281 149.406 46.5234 149.359 46.7422C149.312 46.9453 149.266 47.1562 149.219 47.375C149.188 47.5938 149.156 47.8125 149.125 48.0312C149.109 48.2344 149.102 48.4141 149.102 48.5703C149.102 48.8516 149.102 49.1328 149.102 49.4141C149.117 49.6953 149.125 49.9453 149.125 50.1641C149.125 50.6953 149.062 51.2109 148.938 51.7109C148.812 52.1953 148.75 52.7031 148.75 53.2344C148.75 53.2812 148.75 53.3281 148.75 53.375C148.766 53.4219 148.773 53.4688 148.773 53.5156C149.055 53.4688 149.297 53.3906 149.5 53.2812C149.719 53.1562 149.914 53.0156 150.086 52.8594C150.258 52.6875 150.422 52.5078 150.578 52.3203C150.734 52.1172 150.898 51.9297 151.07 51.7578C151.117 51.7109 151.18 51.6172 151.258 51.4766C151.352 51.3359 151.453 51.1953 151.562 51.0547C151.688 50.8984 151.812 50.7656 151.938 50.6562C152.078 50.5312 152.219 50.4688 152.359 50.4688C152.406 50.4688 152.445 50.4766 152.477 50.4922C152.523 50.4922 152.578 50.5 152.641 50.5156C152.625 50.5625 152.617 50.625 152.617 50.7031C152.617 50.7969 152.625 50.8906 152.641 50.9844C152.656 51.0625 152.664 51.1484 152.664 51.2422C152.664 51.3203 152.656 51.375 152.641 51.4062Z" fill="black"/>
</g>
<defs>
<clipPath id="clip0_443_210">
<rect width="176" height="94" fill="white"/>
</clipPath>
</defs>
</svg>
