<svg width="24" height="24" viewBox="0 0 24 24" fill="none" xmlns="http://www.w3.org/2000/svg">
<g opacity="0.7">
<path d="M13.4 5.7C13.4 6.63888 12.6389 7.4 11.7 7.4C10.7611 7.4 10 6.63888 10 5.7C10 4.76112 10.7611 4 11.7 4C12.6389 4 13.4 4.76112 13.4 5.7Z" fill="black"/>
<path d="M13.4 12.4998C13.4 13.4387 12.6389 14.1998 11.7 14.1998C10.7611 14.1998 10 13.4387 10 12.4998C10 11.5609 10.7611 10.7998 11.7 10.7998C12.6389 10.7998 13.4 11.5609 13.4 12.4998Z" fill="black"/>
<path d="M13.4 19.2996C13.4 20.2385 12.6389 20.9996 11.7 20.9996C10.7611 20.9996 10 20.2385 10 19.2996C10 18.3607 10.7611 17.5996 11.7 17.5996C12.6389 17.5996 13.4 18.3607 13.4 19.2996Z" fill="black"/>
</g>
</svg>
